<svg width="254" height="134" viewBox="0 0 254 134" fill="none" xmlns="http://www.w3.org/2000/svg">
<rect x="1" y="5.71039" width="252" height="125.181" fill="white" stroke="#0487D9" stroke-width="2"/>
<path d="M177.322 91.576C176.212 91.576 175.38 91.4053 174.826 91.064C174.271 90.7227 173.908 90.2533 173.738 89.656C173.61 89.0587 173.546 88.3973 173.546 87.672V50.744C173.546 50.0613 173.61 49.4427 173.738 48.888C173.908 48.2907 174.271 47.8213 174.826 47.48C175.38 47.096 176.255 46.904 177.45 46.904C178.346 46.904 179.007 46.968 179.434 47.096C179.903 47.1813 180.266 47.3307 180.522 47.544C180.778 47.7147 181.034 47.9493 181.29 48.248L196.906 70.072H195.434L211.114 48.184C211.412 47.8427 211.711 47.5867 212.01 47.416C212.308 47.2453 212.692 47.1173 213.162 47.032C213.631 46.9467 214.25 46.904 215.018 46.904C216.17 46.904 217.023 47.096 217.578 47.48C218.132 47.8213 218.474 48.2907 218.602 48.888C218.772 49.4853 218.858 50.1467 218.858 50.872V87.8C218.858 88.44 218.772 89.0587 218.602 89.656C218.474 90.2533 218.132 90.7227 217.578 91.064C217.023 91.4053 216.148 91.576 214.954 91.576C213.802 91.576 212.948 91.384 212.394 91C211.839 90.6587 211.476 90.1893 211.306 89.592C211.178 88.9947 211.114 88.3547 211.114 87.672V60.216L199.466 77.048C199.338 77.2187 199.146 77.4533 198.89 77.752C198.634 78.008 198.292 78.2427 197.866 78.456C197.439 78.6693 196.863 78.776 196.138 78.776C195.455 78.776 194.9 78.6693 194.474 78.456C194.047 78.2427 193.706 78.008 193.45 77.752C193.236 77.496 193.023 77.24 192.81 76.984L181.226 60.216V87.8C181.226 88.44 181.14 89.0587 180.97 89.656C180.842 90.2533 180.5 90.7227 179.946 91.064C179.391 91.4053 178.516 91.576 177.322 91.576Z" fill="#F25029"/>
<path d="M118.232 92.216C116.312 92.216 114.562 91.9813 112.984 91.512C111.448 91.0427 110.082 90.4453 108.888 89.72C107.736 88.9947 106.754 88.248 105.944 87.48C105.133 86.712 104.536 86.008 104.152 85.368C103.597 84.6 103.234 83.9173 103.064 83.32C102.893 82.7227 102.936 82.1467 103.192 81.592C103.49 80.9947 104.024 80.376 104.792 79.736C105.56 79.0533 106.264 78.712 106.904 78.712C107.586 78.6693 108.226 78.8613 108.824 79.288C109.464 79.7147 110.082 80.312 110.68 81.08C111.704 82.4453 112.856 83.4267 114.136 84.024C115.416 84.5787 116.696 84.856 117.976 84.856C119.64 84.856 121.09 84.6427 122.328 84.216C123.565 83.7467 124.525 83.064 125.208 82.168C125.933 81.272 126.296 80.12 126.296 78.712C126.296 77.56 125.933 76.6213 125.208 75.896C124.525 75.128 123.608 74.488 122.456 73.976C121.304 73.4213 120.002 72.9307 118.552 72.504C117.144 72.0347 115.714 71.5227 114.264 70.968C113.24 70.6267 112.216 70.2213 111.192 69.752C110.168 69.24 109.208 68.664 108.312 68.024C107.458 67.384 106.69 66.6373 106.008 65.784C105.368 64.888 104.856 63.864 104.472 62.712C104.088 61.56 103.896 60.216 103.896 58.68C103.896 56.248 104.493 54.1147 105.688 52.28C106.882 50.4027 108.546 48.9307 110.68 47.864C112.813 46.7547 115.245 46.2 117.976 46.2C119.725 46.2 121.282 46.3707 122.648 46.712C124.056 47.0107 125.25 47.416 126.232 47.928C127.256 48.3973 128.088 48.888 128.728 49.4C129.41 49.8693 129.901 50.2747 130.2 50.616C131.181 51.5973 131.714 52.4293 131.8 53.112C131.928 53.752 131.544 54.6267 130.648 55.736C129.752 56.888 128.877 57.528 128.024 57.656C127.213 57.7413 126.296 57.4 125.272 56.632C124.589 55.9067 123.906 55.3307 123.224 54.904C122.541 54.4347 121.773 54.0933 120.92 53.88C120.109 53.6667 119.106 53.56 117.912 53.56C117.058 53.56 116.226 53.688 115.416 53.944C114.648 54.1573 113.986 54.4987 113.432 54.968C112.877 55.3947 112.429 55.928 112.088 56.568C111.789 57.208 111.64 57.9333 111.64 58.744C111.64 59.8533 111.938 60.7707 112.536 61.496C113.176 62.1787 114.029 62.7547 115.096 63.224C116.162 63.6507 117.357 64.056 118.68 64.44C120.002 64.824 121.346 65.2293 122.712 65.656C124.12 66.1253 125.506 66.68 126.872 67.32C128.237 67.96 129.453 68.7707 130.52 69.752C131.586 70.6907 132.44 71.8853 133.08 73.336C133.72 74.744 134.04 76.472 134.04 78.52C134.04 80.8667 133.592 82.9147 132.696 84.664C131.8 86.4133 130.584 87.8427 129.048 88.952C127.512 90.0613 125.805 90.872 123.928 91.384C122.05 91.9387 120.152 92.216 118.232 92.216Z" fill="#0487D9"/>
<path d="M49.1301 90.827C47.0394 90.827 44.9274 90.5284 42.7941 89.931C40.6608 89.291 38.6128 88.3524 36.6501 87.115C34.6874 85.835 32.9381 84.2777 31.4021 82.443C29.9088 80.5657 28.7141 78.411 27.8181 75.979C26.9221 73.5044 26.4741 70.7737 26.4741 67.787C26.4741 64.843 26.9221 62.1977 27.8181 59.851C28.7141 57.4617 29.9088 55.371 31.4021 53.579C32.9381 51.787 34.6661 50.2937 36.5861 49.099C38.5488 47.9044 40.5968 47.0084 42.7301 46.411C44.9061 45.771 47.0608 45.4297 49.1941 45.387C51.3701 45.387 53.2474 45.6217 54.8261 46.091C56.4048 46.5604 57.6848 47.0724 58.6661 47.627C59.6474 48.139 60.3088 48.5017 60.6501 48.715C61.3328 49.1417 61.9728 49.6324 62.5701 50.187C63.2101 50.699 63.5514 51.339 63.5941 52.107C63.6368 52.619 63.5728 53.0884 63.4021 53.515C63.2314 53.899 62.9968 54.3044 62.6981 54.731C62.1861 55.4564 61.6741 55.9897 61.1621 56.331C60.6501 56.6724 60.1381 56.843 59.6261 56.843C59.1568 56.843 58.7088 56.715 58.2821 56.459C57.8981 56.203 57.4074 55.883 56.8101 55.499C56.5541 55.3284 56.0848 55.0724 55.4021 54.731C54.7621 54.347 53.8874 54.0057 52.7781 53.707C51.7114 53.4084 50.4101 53.259 48.8741 53.259C47.0394 53.259 45.2474 53.579 43.4981 54.219C41.7488 54.859 40.1701 55.819 38.7621 57.099C37.3968 58.3364 36.3088 59.8937 35.4981 61.771C34.6874 63.6057 34.2821 65.7177 34.2821 68.107C34.2821 70.4964 34.6874 72.6297 35.4981 74.507C36.3088 76.3417 37.3968 77.899 38.7621 79.179C40.1701 80.4164 41.7488 81.355 43.4981 81.995C45.2474 82.635 47.0394 82.955 48.8741 82.955C50.3248 82.955 51.5621 82.827 52.5861 82.571C53.6528 82.2724 54.5488 81.931 55.2741 81.547C56.0421 81.1204 56.6181 80.8004 57.0021 80.587C57.4714 80.2884 57.9194 80.011 58.3461 79.755C58.7728 79.499 59.2208 79.371 59.6901 79.371C60.2021 79.371 60.6928 79.5417 61.1621 79.883C61.6741 80.2244 62.1648 80.779 62.6341 81.547C62.9328 82.0164 63.1674 82.4644 63.3381 82.891C63.5088 83.3177 63.5728 83.7657 63.5301 84.235C63.4874 85.003 63.1461 85.6644 62.5061 86.219C61.9088 86.731 61.2688 87.179 60.5861 87.563C60.2448 87.7764 59.5834 88.1604 58.6021 88.715C57.6634 89.227 56.4048 89.6964 54.8261 90.123C53.2474 90.5924 51.3488 90.827 49.1301 90.827Z" fill="#BB3896"/>
</svg>
