<svg width="148" height="137" viewBox="0 0 148 137" fill="none" xmlns="http://www.w3.org/2000/svg">
<path d="M126.5 61.5238L146 50.5V18.5L115.5 2L84 18.5V50.5L103.345 61.5238" stroke="black" stroke-width="3" stroke-linecap="round"/>
<path d="M88.5397 20.1122L115.54 6.11224" stroke="black" stroke-width="2" stroke-linecap="round"/>
<path d="M141.5 48.5V20.5" stroke="black" stroke-width="2" stroke-linecap="round"/>
<path d="M87.488 48.1272L102.326 56.4235" stroke="black" stroke-width="2" stroke-linecap="round"/>
<path d="M107.972 69.2143C107.56 69.2143 107.25 69.1508 107.044 69.0238C106.838 68.8968 106.703 68.7222 106.639 68.5C106.592 68.2778 106.568 68.0317 106.568 67.7619V54.0238C106.568 53.7698 106.592 53.5397 106.639 53.3333C106.703 53.1111 106.838 52.9365 107.044 52.8095C107.25 52.6667 107.576 52.5952 108.02 52.5952C108.353 52.5952 108.599 52.619 108.758 52.6667C108.933 52.6984 109.068 52.754 109.163 52.8333C109.258 52.8968 109.353 52.9841 109.449 53.0952L115.258 61.2143H114.711L120.544 53.0714C120.655 52.9444 120.766 52.8492 120.877 52.7857C120.988 52.7222 121.131 52.6746 121.306 52.6429C121.48 52.6111 121.711 52.5952 121.996 52.5952C122.425 52.5952 122.742 52.6667 122.949 52.8095C123.155 52.9365 123.282 53.1111 123.33 53.3333C123.393 53.5556 123.425 53.8016 123.425 54.0714V67.8095C123.425 68.0476 123.393 68.2778 123.33 68.5C123.282 68.7222 123.155 68.8968 122.949 69.0238C122.742 69.1508 122.417 69.2143 121.972 69.2143C121.544 69.2143 121.226 69.1429 121.02 69C120.814 68.873 120.679 68.6984 120.615 68.4762C120.568 68.254 120.544 68.0159 120.544 67.7619V57.5476L116.211 63.8095C116.163 63.873 116.092 63.9603 115.996 64.0714C115.901 64.1667 115.774 64.254 115.615 64.3333C115.457 64.4127 115.242 64.4524 114.972 64.4524C114.719 64.4524 114.512 64.4127 114.353 64.3333C114.195 64.254 114.068 64.1667 113.972 64.0714C113.893 63.9762 113.814 63.881 113.734 63.7857L109.425 57.5476V67.8095C109.425 68.0476 109.393 68.2778 109.33 68.5C109.282 68.7222 109.155 68.8968 108.949 69.0238C108.742 69.1508 108.417 69.2143 107.972 69.2143Z" fill="#F25029"/>
<path d="M85.5 75.4762L105 86.5V118.5L74.5 135L43 118.5V86.5L62.3452 75.4762" stroke="black" stroke-width="3" stroke-linecap="round"/>
<path d="M47.5397 116.888L74.5397 130.888" stroke="black" stroke-width="2" stroke-linecap="round"/>
<path d="M100.5 88.5V116.5" stroke="black" stroke-width="2" stroke-linecap="round"/>
<path d="M46.488 88.8728L61.3262 80.5765" stroke="black" stroke-width="2" stroke-linecap="round"/>
<path d="M73.9071 84.4524C73.1928 84.4524 72.542 84.3651 71.9547 84.1905C71.3833 84.0159 70.8753 83.7937 70.4309 83.5238C70.0023 83.254 69.6372 82.9762 69.3357 82.6905C69.0341 82.4048 68.8118 82.1429 68.669 81.9048C68.4626 81.619 68.3277 81.3651 68.2642 81.1429C68.2007 80.9206 68.2166 80.7063 68.3118 80.5C68.423 80.2778 68.6214 80.0476 68.9071 79.8095C69.1928 79.5556 69.4547 79.4286 69.6928 79.4286C69.9468 79.4127 70.1849 79.4841 70.4071 79.6429C70.6452 79.8016 70.8753 80.0238 71.0976 80.3095C71.4785 80.8175 71.9071 81.1825 72.3833 81.4048C72.8595 81.6111 73.3357 81.7143 73.8118 81.7143C74.4309 81.7143 74.9706 81.6349 75.4309 81.4762C75.8912 81.3016 76.2484 81.0476 76.5023 80.7143C76.7722 80.381 76.9071 79.9524 76.9071 79.4286C76.9071 79 76.7722 78.6508 76.5023 78.381C76.2484 78.0952 75.9071 77.8571 75.4785 77.6667C75.0499 77.4603 74.5658 77.2778 74.0261 77.119C73.5023 76.9444 72.9706 76.754 72.4309 76.5476C72.0499 76.4206 71.669 76.2698 71.288 76.0952C70.9071 75.9048 70.5499 75.6905 70.2166 75.4524C69.8992 75.2143 69.6134 74.9365 69.3595 74.619C69.1214 74.2857 68.9309 73.9048 68.788 73.4762C68.6452 73.0476 68.5738 72.5476 68.5738 71.9762C68.5738 71.0714 68.796 70.2778 69.2404 69.5952C69.6849 68.8968 70.3039 68.3492 71.0976 67.9524C71.8912 67.5397 72.796 67.3333 73.8118 67.3333C74.4626 67.3333 75.042 67.3968 75.5499 67.5238C76.0738 67.6349 76.5182 67.7857 76.8833 67.9762C77.2642 68.1508 77.5738 68.3333 77.8118 68.5238C78.0658 68.6984 78.2484 68.8492 78.3595 68.9762C78.7245 69.3413 78.923 69.6508 78.9547 69.9048C79.0023 70.1429 78.8595 70.4683 78.5261 70.881C78.1928 71.3095 77.8674 71.5476 77.5499 71.5952C77.2484 71.627 76.9071 71.5 76.5261 71.2143C76.2722 70.9444 76.0182 70.7302 75.7642 70.5714C75.5103 70.3968 75.2245 70.2698 74.9071 70.1905C74.6055 70.1111 74.2325 70.0714 73.788 70.0714C73.4706 70.0714 73.1611 70.119 72.8595 70.2143C72.5738 70.2936 72.3277 70.4206 72.1214 70.5952C71.915 70.754 71.7484 70.9524 71.6214 71.1905C71.5103 71.4286 71.4547 71.6984 71.4547 72C71.4547 72.4127 71.5658 72.754 71.788 73.0238C72.0261 73.2778 72.3436 73.4921 72.7404 73.6667C73.1372 73.8254 73.5817 73.9762 74.0738 74.119C74.5658 74.2619 75.0658 74.4127 75.5738 74.5714C76.0976 74.746 76.6134 74.9524 77.1214 75.1905C77.6293 75.4286 78.0817 75.7302 78.4785 76.0952C78.8753 76.4444 79.1928 76.8889 79.4309 77.4286C79.669 77.9524 79.788 78.5952 79.788 79.3571C79.788 80.2302 79.6214 80.9921 79.288 81.6429C78.9547 82.2937 78.5023 82.8254 77.9309 83.2381C77.3595 83.6508 76.7245 83.9524 76.0261 84.1429C75.3277 84.3492 74.6214 84.4524 73.9071 84.4524Z" fill="#0487D9"/>
<path d="M44.5 61.5238L64 50.5V18.5L33.5 2L2 18.5V50.5L21.3452 61.5238" stroke="black" stroke-width="3" stroke-linecap="round"/>
<path d="M6.53967 20.1122L33.5397 6.11224" stroke="black" stroke-width="2" stroke-linecap="round"/>
<path d="M59.5 48.5V20.5" stroke="black" stroke-width="2" stroke-linecap="round"/>
<path d="M5.48804 48.1272L20.3262 56.4235" stroke="black" stroke-width="2" stroke-linecap="round"/>
<path d="M34.5325 69.3333C33.7547 69.3333 32.969 69.2222 32.1753 69C31.3817 68.7619 30.6198 68.4127 29.8896 67.9524C29.1594 67.4762 28.5086 66.8968 27.9372 66.2143C27.3817 65.5159 26.9372 64.7143 26.6039 63.8095C26.2706 62.8889 26.1039 61.873 26.1039 60.7619C26.1039 59.6667 26.2706 58.6825 26.6039 57.8095C26.9372 56.9206 27.3817 56.1429 27.9372 55.4762C28.5086 54.8095 29.1515 54.254 29.8658 53.8095C30.596 53.3651 31.3579 53.0317 32.1515 52.8095C32.961 52.5714 33.7626 52.4444 34.5563 52.4286C35.3658 52.4286 36.0642 52.5159 36.6515 52.6905C37.2388 52.8651 37.715 53.0556 38.0801 53.2619C38.4452 53.4524 38.6912 53.5873 38.8182 53.6667C39.0721 53.8254 39.3102 54.0079 39.5325 54.2143C39.7706 54.4048 39.8975 54.6429 39.9134 54.9286C39.9293 55.119 39.9055 55.2936 39.842 55.4524C39.7785 55.5952 39.6912 55.746 39.5801 55.9048C39.3896 56.1746 39.1991 56.373 39.0087 56.5C38.8182 56.627 38.6277 56.6905 38.4372 56.6905C38.2626 56.6905 38.096 56.6429 37.9372 56.5476C37.7944 56.4524 37.6118 56.3333 37.3896 56.1905C37.2944 56.127 37.1198 56.0317 36.8658 55.9048C36.6277 55.7619 36.3023 55.6349 35.8896 55.5238C35.4928 55.4127 35.0086 55.3571 34.4372 55.3571C33.7547 55.3571 33.088 55.4762 32.4372 55.7143C31.7864 55.9524 31.1991 56.3095 30.6753 56.7857C30.1674 57.246 29.7626 57.8254 29.461 58.5238C29.1594 59.2063 29.0086 59.9921 29.0086 60.881C29.0086 61.7698 29.1594 62.5635 29.461 63.2619C29.7626 63.9444 30.1674 64.5238 30.6753 65C31.1991 65.4603 31.7864 65.8095 32.4372 66.0476C33.088 66.2857 33.7547 66.4048 34.4372 66.4048C34.9769 66.4048 35.4372 66.3571 35.8182 66.2619C36.215 66.1508 36.5483 66.0238 36.8182 65.881C37.1039 65.7222 37.3182 65.6032 37.461 65.5238C37.6356 65.4127 37.8023 65.3095 37.961 65.2143C38.1198 65.119 38.2864 65.0714 38.461 65.0714C38.6515 65.0714 38.834 65.1349 39.0087 65.2619C39.1991 65.3889 39.3817 65.5952 39.5563 65.881C39.6674 66.0556 39.7547 66.2222 39.8182 66.381C39.8817 66.5397 39.9055 66.7063 39.8896 66.881C39.8737 67.1667 39.7467 67.4127 39.5086 67.619C39.2864 67.8095 39.0483 67.9762 38.7944 68.119C38.6674 68.1984 38.4213 68.3413 38.0563 68.5476C37.7071 68.7381 37.2388 68.9127 36.6515 69.0714C36.0642 69.246 35.3579 69.3333 34.5325 69.3333Z" fill="#BB3896"/>
</svg>
