<svg width="66" height="64" viewBox="0 0 66 64" fill="none" xmlns="http://www.w3.org/2000/svg">
<path d="M39.9725 44.2143C39.5598 44.2143 39.2502 44.1508 39.0439 44.0238C38.8375 43.8968 38.7026 43.7222 38.6391 43.5C38.5915 43.2778 38.5677 43.0317 38.5677 42.7619V29.0238C38.5677 28.7698 38.5915 28.5397 38.6391 28.3333C38.7026 28.1111 38.8375 27.9365 39.0439 27.8095C39.2502 27.6667 39.5756 27.5952 40.0201 27.5952C40.3534 27.5952 40.5995 27.619 40.7582 27.6667C40.9328 27.6984 41.0677 27.754 41.1629 27.8333C41.2582 27.8968 41.3534 27.9841 41.4487 28.0952L47.2582 36.2143H46.7106L52.5439 28.0714C52.655 27.9444 52.7661 27.8492 52.8772 27.7857C52.9883 27.7222 53.1312 27.6746 53.3058 27.6429C53.4804 27.6111 53.7106 27.5952 53.9963 27.5952C54.4249 27.5952 54.7423 27.6667 54.9487 27.8095C55.155 27.9365 55.282 28.1111 55.3296 28.3333C55.3931 28.5556 55.4249 28.8016 55.4249 29.0714V42.8095C55.4249 43.0476 55.3931 43.2778 55.3296 43.5C55.282 43.7222 55.155 43.8968 54.9487 44.0238C54.7423 44.1508 54.4169 44.2143 53.9725 44.2143C53.5439 44.2143 53.2264 44.1429 53.0201 44C52.8137 43.873 52.6788 43.6984 52.6153 43.4762C52.5677 43.254 52.5439 43.0159 52.5439 42.7619V32.5476L48.2106 38.8095C48.1629 38.873 48.0915 38.9603 47.9963 39.0714C47.901 39.1667 47.7741 39.254 47.6153 39.3333C47.4566 39.4127 47.2423 39.4524 46.9725 39.4524C46.7185 39.4524 46.5122 39.4127 46.3534 39.3333C46.1947 39.254 46.0677 39.1667 45.9725 39.0714C45.8931 38.9762 45.8137 38.881 45.7344 38.7857L41.4249 32.5476V42.8095C41.4249 43.0476 41.3931 43.2778 41.3296 43.5C41.282 43.7222 41.155 43.8968 40.9487 44.0238C40.7423 44.1508 40.4169 44.2143 39.9725 44.2143Z" fill="#F25029"/>
<path d="M29.9071 44.4524C29.1928 44.4524 28.542 44.3651 27.9547 44.1905C27.3833 44.0159 26.8753 43.7937 26.4309 43.5238C26.0023 43.254 25.6372 42.9762 25.3357 42.6905C25.0341 42.4048 24.8118 42.1429 24.669 41.9048C24.4626 41.619 24.3277 41.3651 24.2642 41.1429C24.2007 40.9206 24.2166 40.7063 24.3118 40.5C24.423 40.2778 24.6214 40.0476 24.9071 39.8095C25.1928 39.5556 25.4547 39.4286 25.6928 39.4286C25.9468 39.4127 26.1849 39.4841 26.4071 39.6429C26.6452 39.8016 26.8753 40.0238 27.0976 40.3095C27.4785 40.8175 27.9071 41.1825 28.3833 41.4048C28.8595 41.6111 29.3357 41.7143 29.8118 41.7143C30.4309 41.7143 30.9706 41.6349 31.4309 41.4762C31.8912 41.3016 32.2484 41.0476 32.5023 40.7143C32.7722 40.381 32.9071 39.9524 32.9071 39.4286C32.9071 39 32.7722 38.6508 32.5023 38.381C32.2484 38.0952 31.9071 37.8571 31.4785 37.6667C31.0499 37.4603 30.5658 37.2778 30.0261 37.119C29.5023 36.9444 28.9706 36.754 28.4309 36.5476C28.0499 36.4206 27.669 36.2698 27.288 36.0952C26.9071 35.9048 26.5499 35.6905 26.2166 35.4524C25.8992 35.2143 25.6134 34.9365 25.3595 34.619C25.1214 34.2857 24.9309 33.9048 24.788 33.4762C24.6452 33.0476 24.5738 32.5476 24.5738 31.9762C24.5738 31.0714 24.796 30.2778 25.2404 29.5952C25.6849 28.8968 26.3039 28.3492 27.0976 27.9524C27.8912 27.5397 28.796 27.3333 29.8118 27.3333C30.4626 27.3333 31.042 27.3968 31.5499 27.5238C32.0738 27.6349 32.5182 27.7857 32.8833 27.9762C33.2642 28.1508 33.5738 28.3333 33.8118 28.5238C34.0658 28.6984 34.2484 28.8492 34.3595 28.9762C34.7245 29.3413 34.923 29.6508 34.9547 29.9048C35.0023 30.1429 34.8595 30.4683 34.5261 30.881C34.1928 31.3095 33.8674 31.5476 33.5499 31.5952C33.2484 31.627 32.9071 31.5 32.5261 31.2143C32.2722 30.9444 32.0182 30.7302 31.7642 30.5714C31.5103 30.3968 31.2245 30.2698 30.9071 30.1905C30.6055 30.1111 30.2325 30.0714 29.788 30.0714C29.4706 30.0714 29.1611 30.119 28.8595 30.2143C28.5738 30.2936 28.3277 30.4206 28.1214 30.5952C27.915 30.754 27.7484 30.9524 27.6214 31.1905C27.5103 31.4286 27.4547 31.6984 27.4547 32C27.4547 32.4127 27.5658 32.754 27.788 33.0238C28.0261 33.2778 28.3436 33.4921 28.7404 33.6667C29.1372 33.8254 29.5817 33.9762 30.0738 34.119C30.5658 34.2619 31.0658 34.4127 31.5738 34.5714C32.0976 34.746 32.6134 34.9524 33.1214 35.1905C33.6293 35.4286 34.0817 35.7302 34.4785 36.0952C34.8753 36.4444 35.1928 36.8889 35.4309 37.4286C35.669 37.9524 35.788 38.5952 35.788 39.3571C35.788 40.2302 35.6214 40.9921 35.288 41.6429C34.9547 42.2937 34.5023 42.8254 33.9309 43.2381C33.3595 43.6508 32.7245 43.9524 32.0261 44.1429C31.3277 44.3492 30.6214 44.4524 29.9071 44.4524Z" fill="#0487D9"/>
<path d="M44.5 61.5238L64 50.5V18.5L33.5 2L2 18.5V50.5L21.3452 61.5238" stroke="black" stroke-width="3" stroke-linecap="round"/>
<path d="M6.53967 20.1122L33.5397 6.11224" stroke="black" stroke-width="2" stroke-linecap="round"/>
<path d="M59.5 48.5V20.5" stroke="black" stroke-width="2" stroke-linecap="round"/>
<path d="M5.48804 48.1272L20.3262 56.4235" stroke="black" stroke-width="2" stroke-linecap="round"/>
<path d="M16.5325 44.3333C15.7547 44.3333 14.969 44.2222 14.1753 44C13.3817 43.7619 12.6198 43.4127 11.8896 42.9524C11.1594 42.4762 10.5086 41.8968 9.93722 41.2143C9.38167 40.5159 8.93722 39.7143 8.60389 38.8095C8.27055 37.8889 8.10389 36.873 8.10389 35.7619C8.10389 34.6667 8.27055 33.6825 8.60389 32.8095C8.93722 31.9206 9.38167 31.1429 9.93722 30.4762C10.5086 29.8095 11.1515 29.254 11.8658 28.8095C12.596 28.3651 13.3579 28.0317 14.1515 27.8095C14.961 27.5714 15.7626 27.4444 16.5563 27.4286C17.3658 27.4286 18.0642 27.5159 18.6515 27.6905C19.2388 27.8651 19.715 28.0556 20.0801 28.2619C20.4452 28.4524 20.6912 28.5873 20.8182 28.6667C21.0721 28.8254 21.3102 29.0079 21.5325 29.2143C21.7706 29.4048 21.8975 29.6429 21.9134 29.9286C21.9293 30.119 21.9055 30.2936 21.842 30.4524C21.7785 30.5952 21.6912 30.746 21.5801 30.9048C21.3896 31.1746 21.1991 31.373 21.0087 31.5C20.8182 31.627 20.6277 31.6905 20.4372 31.6905C20.2626 31.6905 20.096 31.6429 19.9372 31.5476C19.7944 31.4524 19.6118 31.3333 19.3896 31.1905C19.2944 31.127 19.1198 31.0317 18.8658 30.9048C18.6277 30.7619 18.3023 30.6349 17.8896 30.5238C17.4928 30.4127 17.0086 30.3571 16.4372 30.3571C15.7547 30.3571 15.088 30.4762 14.4372 30.7143C13.7864 30.9524 13.1991 31.3095 12.6753 31.7857C12.1674 32.246 11.7626 32.8254 11.461 33.5238C11.1594 34.2063 11.0086 34.9921 11.0086 35.881C11.0086 36.7698 11.1594 37.5635 11.461 38.2619C11.7626 38.9444 12.1674 39.5238 12.6753 40C13.1991 40.4603 13.7864 40.8095 14.4372 41.0476C15.088 41.2857 15.7547 41.4048 16.4372 41.4048C16.9769 41.4048 17.4372 41.3571 17.8182 41.2619C18.215 41.1508 18.5483 41.0238 18.8182 40.881C19.1039 40.7222 19.3182 40.6032 19.461 40.5238C19.6356 40.4127 19.8023 40.3095 19.961 40.2143C20.1198 40.119 20.2864 40.0714 20.461 40.0714C20.6515 40.0714 20.834 40.1349 21.0087 40.2619C21.1991 40.3889 21.3817 40.5952 21.5563 40.881C21.6674 41.0556 21.7547 41.2222 21.8182 41.381C21.8817 41.5397 21.9055 41.7063 21.8896 41.881C21.8737 42.1667 21.7467 42.4127 21.5086 42.619C21.2864 42.8095 21.0483 42.9762 20.7944 43.119C20.6674 43.1984 20.4213 43.3413 20.0563 43.5476C19.7071 43.7381 19.2388 43.9127 18.6515 44.0714C18.0642 44.246 17.3579 44.3333 16.5325 44.3333Z" fill="#BB3896"/>
</svg>
